Coordinates
version=1
nRows=15
nColumns=34
inDegrees=yes

Units are S.I. units (second, meters, Newtons, ...)
If the header above contains a line with 'inDegrees', this indicates whether rotational values are in degrees (yes) or radians (no).

endheader
time	pelvis_tilt	pelvis_list	pelvis_rotation	pelvis_tx	pelvis_ty	pelvis_tz	hip_flexion_r	hip_adduction_r	hip_rotation_r	knee_angle_r	ankle_angle_r	subtalar_angle_r	mtp_angle_r	hip_flexion_l	hip_adduction_l	hip_rotation_l	knee_angle_l	ankle_angle_l	subtalar_angle_l	mtp_angle_l	lumbar_extension	lumbar_bending	lumbar_rotation	arm_flex_r	arm_add_r	arm_rot_r	elbow_flex_r	pro_sup_r	arm_flex_l	arm_add_l	arm_rot_l	elbow_flex_l	pro_sup_l
      3.78333330	     -9.85229443	    -14.63131120	      3.31776585	     -6.91451303	      0.90590054	      0.44309232	     46.88446089	     14.55411582	     -2.23608711	     25.69472430	      4.84888595	    -20.51121535	      0.00000000	    -18.35662315	     -8.68958998	     -8.40763843	     33.63134943	     -9.12027436	     -7.98622537	      0.00000000	     -8.41629822	     13.32796267	    -18.84966347	   -332.94529525	    -50.05836702	    -45.30829158	    137.13024634	     85.20012383	   -329.38126029	     -8.98243734	     27.12082559	     99.55192162	    105.68395730
      3.80000000	     -7.77396836	    -13.74329168	      3.42914552	     -6.85318637	      0.91690883	      0.43813700	     40.76463618	     14.96916086	     -2.51231491	     20.60299406	      3.11523965	    -18.00332989	      0.00000000	    -19.24357559	     -7.44517044	     -7.12464009	     42.07449929	    -15.04476204	    -13.29159063	      0.00000000	     -9.99362762	     12.95710522	    -17.87756482	   -332.34401405	    -48.87996742	    -44.55481598	    137.37990304	     85.42313441	   -335.71403800	     -8.28137215	     28.36483888	     97.70846635	    105.95429590
      3.81666670	     -5.85709505	    -13.16602424	      3.19876820	     -6.79461503	      0.91213648	      0.43476818	     36.12979128	     15.91424245	     -2.56147717	     22.02280583	      3.10343635	    -17.19700325	      0.00000000	    -19.46769662	     -6.76721022	     -6.93541027	     51.83341968	    -21.30489723	    -17.01917344	      0.00000000	    -11.14490024	     12.68215074	    -16.68976268	   -330.06584496	    -48.48023268	    -43.66549450	    137.03445940	     85.46926298	   -342.21971243	     -8.60402493	     30.43588537	     93.79967382	    106.33315495
      3.83333330	     -5.35737106	    -12.76358091	      2.91022797	     -6.74195808	      0.89609405	      0.43257229	     34.60528182	     16.82846045	     -2.49102157	     27.43311889	      5.49177412	    -18.25507931	      0.00000000	    -17.87796866	     -6.79235735	     -6.93202978	     61.08738759	    -25.91218974	    -18.69686605	      0.00000000	    -10.17455459	     12.28852812	    -16.39889711	   -326.38986550	    -48.70200614	    -39.57694812	    135.24967138	     85.28093382	   -348.75506622	     -9.67762042	     34.13567574	     86.93578843	    107.02246275
      3.85000000	     -6.12303709	    -13.02370658	      2.58500981	     -6.69156587	      0.88059067	      0.43100489	     35.09861907	     17.88405695	     -3.33130181	     33.20765381	      8.34670748	    -20.48242916	      0.00000000	    -13.73685688	     -8.29971552	     -6.58938164	     69.52385617	    -26.07192217	    -19.31800726	      0.00000000	     -8.66310751	     12.51800439	    -16.13252538	   -321.95448485	    -48.94346159	    -37.66351843	    133.57036115	     84.80805202	   -355.50922660	    -10.69844419	     39.46778728	     78.89584733	    107.45998222
      3.86666670	     -7.24777762	    -14.31106508	      2.68686294	     -6.63604485	      0.87541680	      0.42813842	     34.83436372	     19.05214361	     -5.96272626	     36.51387402	      8.92907273	    -23.85734202	      0.00000000	     -6.14002001	    -11.19830289	     -4.25781120	     76.16190838	    -21.72253179	    -20.14440924	      0.00000000	     -7.14489348	     14.19922916	    -15.83460119	   -317.41555979	    -49.60826709	    -35.11702037	    131.58633095	     83.94089127	   -361.68937086	    -10.40174904	     44.33553042	     66.80013737	    107.13664337
      3.88333330	     -7.98478908	    -16.07097675	      2.81767101	     -6.57449488	      0.86533555	      0.42631308	     32.80459162	     20.49138705	     -9.01688908	     37.97234597	      9.32481670	    -26.11809722	      0.00000000	      2.90938402	    -14.03576351	     -0.10126865	     81.15744055	    -16.12360471	    -22.07203324	      0.00000000	     -6.14903593	     16.25092522	    -15.03883223	   -313.84501248	    -49.74778083	    -35.06530112	    130.38196104	     83.05278442	   -367.03324334	     -9.36952247	     46.23952358	     52.45960656	    105.92176040
      3.90000000	     -8.07037374	    -17.24339027	      2.85653411	     -6.51877873	      0.86227421	      0.42503808	     29.97983936	     21.63336266	    -10.94828749	     40.09308694	      9.58760702	    -29.06925588	      0.00000000	     11.44811416	    -15.49674249	      4.53000309	     84.36362498	    -14.91664937	    -22.55316950	      0.00000000	     -5.66942616	     17.57407378	    -13.33670202	   -312.09902890	    -50.52089254	    -35.91377610	    129.38768061	     82.05912128	   -370.35394366	     -8.68122610	     45.80394970	     38.77955330	    103.51383382
      3.91666670	     -7.28038528	    -17.12347373	      2.86080163	     -6.46995778	      0.85701269	      0.42465039	     26.81187837	     21.83464410	    -11.20564608	     43.62139048	     11.21342370	    -31.56623449	      0.00000000	     17.95643252	    -14.96299756	      7.95553470	     86.81987685	    -18.55474628	    -23.22265240	      0.00000000	     -6.04598753	     17.32609029	    -11.10139062	   -312.15890387	    -51.78571433	    -37.27276361	    128.88588267	     81.26337942	   -372.70205293	    -10.05683892	     43.54973510	     30.58436003	    100.61631177
      3.93333330	     -6.80988242	    -15.47268973	      2.08871682	     -6.41886709	      0.85246049	      0.42559425	     23.36673380	     20.83646021	     -9.81641348	     47.70112567	     15.86063513	    -31.27457506	      0.00000000	     24.69690702	    -12.47654765	      9.88010586	     89.49163855	    -19.56922387	    -24.45767225	      0.00000000	     -5.49609976	     14.89642862	     -8.20126449	   -316.45555621	    -52.77470494	    -41.26651330	    129.75824747	     79.99126106	   -375.30154995	    -12.71285533	     37.27656906	     26.74060932	     94.24043198
      3.95000000	     -5.88041387	    -13.01687106	      1.37948566	     -6.36635552	      0.85225086	      0.42516919	     18.72507356	     18.41319095	     -8.80579353	     50.94073813	     20.02890963	    -29.60497333	      0.00000000	     32.50690290	     -8.87265097	     11.33410771	     92.22554368	     -8.67863878	    -26.78765897	      0.00000000	     -6.31372659	     11.76509552	     -5.75038148	   -320.01797229	    -53.45694897	    -44.40275059	    130.59742468	     79.25505109	   -377.83226781	    -16.94913837	     32.98612132	     28.41735311	     89.57988282
      3.96666670	     -5.91244059	     -9.99630205	      0.60091062	     -6.31731364	      0.85696367	      0.42254291	     14.49969822	     14.69155169	     -8.07917172	     51.84248341	     21.79510815	    -28.96556899	      0.00000000	     41.55590812	     -4.33974904	     12.51353620	     92.99998019	     16.63754286	    -28.79561922	      0.00000000	     -6.30112213	      8.20033664	     -3.12978529	   -324.79915143	    -54.25704823	    -48.30804104	    131.63922090	     78.65222576	   -379.41026129	    -20.71680470	     27.55194120	     30.56148246	     84.45558452
      3.98333330	     -6.07312490	     -8.19438367	     -0.97625952	     -6.27174113	      0.86418333	      0.41962112	      9.48869773	     12.02022436	     -7.24376211	     48.89587642	     19.65522454	    -30.59791812	      0.00000000	     48.69238440	     -1.91955313	     13.33198043	     89.04463352	     33.33981850	    -21.33891208	      0.00000000	     -6.27052388	      6.17142543	     -0.86621616	   -326.69565936	    -53.93586506	    -47.63197251	    131.90126571	     78.56205458	   -380.77906325	    -23.76905071	     26.06691533	     31.62491559	     82.83907471
      4.00000000	     -6.09675543	     -7.23020972	     -2.29035123	     -6.22351689	      0.87664035	      0.41571390	      3.26025859	     10.03654157	     -7.36443513	     42.26934047	     11.34315365	    -33.91036611	      0.00000000	     52.93395887	     -1.31583349	     13.93066824	     81.30657086	     33.79371469	    -18.00347170	      0.00000000	     -7.25142818	      5.27926712	      0.85009684	   -325.54528966	    -54.09590872	    -46.60733559	    131.80344314	     78.61318190	   -382.32891618	    -26.21148816	     24.56264593	     33.41164841	     80.67701939
      4.01666670	     -5.80943093	     -5.39233166	     -2.53244807	     -6.16353505	      0.88965670	      0.41175337	     -4.54199040	      7.15225050	     -9.03507292	     33.56169236	      3.10556798	    -33.77892492	      0.00000000	     53.87585374	     -0.13875237	     13.95130813	     71.41239742	     25.55728360	    -20.65305430	      0.00000000	     -7.54150447	      3.43526771	      0.84466807	   -324.28214438	    -52.74252648	    -44.81492583	    132.19934319	     78.89613768	   -384.25256175	    -28.30511882	     23.82226423	     33.58091065	     79.23045257
